<svg width="750" height="750" viewBox="0 0 750 750" fill="none" xmlns="http://www.w3.org/2000/svg">
<path fill-rule="evenodd" clip-rule="evenodd" d="M394.239 239.33C432.471 244.663 465.686 265.66 487.192 295.627L508.295 287.119C484.385 251.265 446.341 225.643 402.125 218.212L394.239 239.33ZM375.198 216C327.462 216.089 284.647 237.147 255.473 270.455L276.122 279.734C299.431 255.796 331.36 240.292 366.895 238.234L375.198 216ZM237.799 456.041C265.337 503.023 316.233 534.655 374.545 534.997L366.851 513.763C318.976 510.975 277.654 483.782 255.141 444.443L237.799 456.041ZM226.434 432.362C219.693 414.7 216 395.531 216 375.5C216 344.826 224.659 316.175 239.665 291.856L259.338 300.696C245.211 322.35 237 348.216 237 376C237 391.538 239.568 406.476 244.302 420.413L226.434 432.362ZM513 376C513 355.413 508.492 335.88 500.41 318.332L520.989 310.034C529.991 330.008 535 352.169 535 375.5C535 402.561 528.261 428.047 516.37 450.374L500.616 433.219C508.569 415.787 513 396.411 513 376ZM501.789 472.936L486.923 456.747C465.386 486.547 432.239 507.404 394.115 512.687L401.44 532.901C442.124 526.247 477.632 504.2 501.789 472.936Z" fill="#992828"/>
</svg>
